<svg xmlns="http://www.w3.org/2000/svg" version="1.1" xmlns:xlink="http://www.w3.org/1999/xlink" xmlns:svgjs="http://svgjs.dev/svgjs" width="1500" height="496" viewBox="0 0 1500 496"><g transform="matrix(1,0,0,1,-0.9090909090909918,-1.171535643845914)"><svg viewBox="0 0 396 131" data-background-color="#ffffff" preserveAspectRatio="xMidYMid meet" height="496" width="1500" xmlns="http://www.w3.org/2000/svg" xmlns:xlink="http://www.w3.org/1999/xlink"><g id="tight-bounds" transform="matrix(1,0,0,1,0.2400000000000091,0.3094176801286608)"><svg viewBox="0 0 395.52 130.38116463974268" height="130.38116463974268" width="395.52"><g><svg viewBox="0 0 395.52 130.38116463974268" height="130.38116463974268" width="395.52"><g><svg viewBox="0 0 395.52 130.38116463974268" height="130.38116463974268" width="395.52"><g id="textblocktransform"><svg viewBox="0 0 395.52 130.38116463974268" height="130.38116463974268" width="395.52" id="textblock"><g><svg viewBox="0 0 395.52 86.91346138347883" height="86.91346138347883" width="395.52"><g transform="matrix(1,0,0,1,0,0)"><svg width="395.52" viewBox="3.17 -38.35 181.76000000000002 39.940000000000005" height="86.91346138347883" data-palette-color="#3949fd"><path d="M16.31-21.04L15.41-21Q15.11-14.09 15.11-6.79L15.11-6.79 15.11 0.49 13.33 0.49 12.72 0.46 4.05 0.54Q3.22 0.54 3.17 0.56L3.17 0.56Q3.17 0.54 3.27 0.15L3.27 0.15 3.27 0 3.3-0.1Q3.17-1.86 3.17-4.37L3.17-4.37 3.27-31.64 3.25-32.91 3.25-34.13 3.2-36.43Q3.2-36.67 3.47-36.94L3.47-36.94 6.81-36.94 8.76-36.96Q15.65-36.96 18.62-36.77 21.58-36.57 22.88-36.57L22.88-36.57Q23.58-32.37 24.98-25.44L24.98-25.44 26.71-16.7 27.56-16.7 30.69-32.67Q30.76-33.03 31.03-34.8 31.3-36.57 31.45-36.77L31.45-36.77 31.54-36.77 47.44-36.91 48.39-36.89 51.12-36.89Q51.34-36.79 51.37-35.99L51.37-35.99 51.61-26.76Q51.9-15.28 52.03-8.89L52.03-8.89Q52.03-3.96 51.88 0.37L51.88 0.37Q51.81 0.66 50.9 0.71L50.9 0.71 49.8 0.76Q48.49 0.81 47.85 0.81L47.85 0.81 46.58 0.81Q44.21 0.83 39.6 0.83L39.6 0.83Q38.75 0.07 38.75-5.71L38.75-5.71 38.79-13.38 38.79-15.36Q38.79-17.97 38.77-19.21L38.77-19.21 37.84-19.38Q37.04-16.43 34.74-6.23L34.74-6.23 34.52-5.25Q34.35-4.49 33.95-2.55 33.54-0.61 33.3 0.39L33.3 0.39Q33.01 0.73 30.71 0.73L30.71 0.73 30.4 0.73 27.66 0.66 26.17 0.68 25.02 0.68 23.1 0.71 22.41 0.71Q21.29 0.71 21.17 0.2L21.17 0.2 21.19 0.22 18.97-9.47Q18.87-9.84 18.53-11.07 18.19-12.3 18.14-13.13L18.14-13.13 16.31-21.04ZM66.18-16.04L67.31-16.21 67.55-16.19 68.14-16.19Q68.97-16.19 69.43-16.31L69.43-16.31 70.75-16.48Q74.12-16.72 74.8-18.29L74.8-18.29Q75.14-19.07 75.14-20.26L75.14-20.26Q75-20.51 75-21.19 75-21.88 74.3-22.63 73.61-23.39 72.65-23.39L72.65-23.39 72.53-23.39Q70.19-23.39 70.19-19.41L70.19-19.41Q70.07-19.21 69.79-19.26 69.5-19.31 68.43-19.31L68.43-19.31 55.83-19.31Q55.95-21 56.71-22.95L56.71-22.95Q58.15-26.71 62.29-28.36 66.43-30 70.51-30.15L70.51-30.15 71.97-30.22 72.75-30.3Q72.9-30.3 73.04-30.22L73.04-30.22 73.36-30.22 74.46-30.27Q74.8-30.27 76-30.1L76-30.1 76.71-30Q76.88-29.98 77.24-29.98 77.61-29.98 78.78-29.82 79.95-29.66 81.71-28.98L81.71-28.98Q87.67-26.64 88.94-20L88.94-20Q89.48-17.19 89.48-13.77L89.48-13.77Q89.65-13.21 89.65-12.74L89.65-12.74 89.52-11.06 89.52-8.23Q89.55-8.18 89.55-7.81L89.55-7.81 89.5-6.15 89.5-5.93Q89.57-5.81 89.57-5.59L89.57-5.59 89.55-5.37 89.55-4.86Q89.55-2.54 90.26-0.46L90.26-0.46 90.5 0.07 79.47 0.07 78.59 0.05Q77.61 0.05 77.1 0.07L77.1 0.07Q76.32-1.39 75.61-3.93L75.61-3.93Q75.29-3.27 74.52-2.43 73.75-1.59 73.39-1.59L73.39-1.59Q69.77 0.17 67.89 0.42L67.89 0.42Q65.11 0.88 64.9 0.88 64.69 0.88 64.69 0.88L64.69 0.88Q58.86 0.88 55.88-3.17L55.88-3.17Q54.39-5.25 54.39-7.98L54.39-7.98Q54.39-13.92 59.91-15.26L59.91-15.26Q61.33-15.6 65.38-15.97L65.38-15.97 66.18-16.04ZM75.31-9.81L75.31-10.55 75.34-11.33Q75.34-12.55 75.14-13.67L75.14-13.67Q74.61-13.38 73.58-13.01 72.56-12.65 71.95-12.39 71.34-12.13 70.83-11.49 70.33-10.84 70.33-9.72 70.33-8.59 71.05-7.67 71.77-6.74 72.63-6.74L72.63-6.74Q74.46-6.74 75.24-8.06L75.24-8.06 75.29-8.3 75.31-9.81ZM93.18-19.46L93.18-19.46Q93.77-25.02 95.14-27.83L95.14-27.83Q97.75-33.25 102.92-35.52L102.92-35.52Q107.54-37.55 112.96-37.55L112.96-37.55Q122.04-37.55 126.22-32.57L126.22-32.57Q128.73-29.61 129.12-25.22L129.12-25.22 129.34-22.92Q128.93-22.53 124.09-22.53L124.09-22.53 120.21-22.58 119.89-22.58 117.77-22.63 117.18-22.61 116.69-22.61Q116.01-22.61 115.66-24.61 115.3-26.61 114.58-27.26 113.86-27.91 112.91-27.91 111.96-27.91 111.24-27.56 110.52-27.22 110.05-26.75 109.59-26.27 109.27-25.39L109.27-25.39Q108.69-23.88 108.56-22.18 108.44-20.48 108.44-18.38L108.44-18.38 108.44-17.8 108.34-15.33Q108.34-8.59 112.15-8.45L112.15-8.45Q113.13-8.45 113.52-8.79L113.52-8.79Q114.57-9.72 115.35-12.52L115.35-12.52Q115.52-13.11 115.77-13.48L115.77-13.48 116.69-13.48 117.82-13.45 121.77-13.45 122.97-13.48 125.29-13.45 126.7-13.45 128.14-13.43 129.12-13.43Q129.41-13.4 129.54-12.92L129.54-12.92 129.46-12.11Q129.24-9.23 128.12-6.88L128.12-6.88Q126.04-2.59 121.59-0.5 117.13 1.59 111.81 1.59L111.81 1.59Q102.51 1.59 97.85-3.91 93.18-9.4 93.18-19.46ZM142.62-16.04L143.74-16.21 143.99-16.19 144.57-16.19Q145.4-16.19 145.87-16.31L145.87-16.31 147.18-16.48Q150.55-16.72 151.24-18.29L151.24-18.29Q151.58-19.07 151.58-20.26L151.58-20.26Q151.43-20.51 151.43-21.19 151.43-21.88 150.74-22.63 150.04-23.39 149.09-23.39L149.09-23.39 148.97-23.39Q146.62-23.39 146.62-19.41L146.62-19.41Q146.5-19.21 146.22-19.26 145.94-19.31 144.87-19.31L144.87-19.31 132.27-19.31Q132.39-21 133.15-22.95L133.15-22.95Q134.59-26.71 138.73-28.36 142.86-30 146.94-30.15L146.94-30.15 148.41-30.22 149.19-30.3Q149.33-30.3 149.48-30.22L149.48-30.22 149.8-30.22 150.9-30.27Q151.24-30.27 152.43-30.1L152.43-30.1 153.14-30Q153.31-29.98 153.68-29.98 154.05-29.98 155.22-29.82 156.39-29.66 158.15-28.98L158.15-28.98Q164.1-26.64 165.37-20L165.37-20Q165.91-17.19 165.91-13.77L165.91-13.77Q166.08-13.21 166.08-12.74L166.08-12.74 165.96-11.06 165.96-8.23Q165.98-8.18 165.98-7.81L165.98-7.81 165.93-6.15 165.93-5.93Q166.01-5.81 166.01-5.59L166.01-5.59 165.98-5.37 165.98-4.86Q165.98-2.54 166.69-0.46L166.69-0.46 166.94 0.07 155.9 0.07 155.02 0.05Q154.05 0.05 153.53 0.07L153.53 0.07Q152.75-1.39 152.04-3.93L152.04-3.93Q151.73-3.27 150.96-2.43 150.19-1.59 149.82-1.59L149.82-1.59Q146.21 0.17 144.33 0.42L144.33 0.42Q141.55 0.88 141.34 0.88 141.13 0.88 141.13 0.88L141.13 0.88Q135.3 0.88 132.32-3.17L132.32-3.17Q130.83-5.25 130.83-7.98L130.83-7.98Q130.83-13.92 136.35-15.26L136.35-15.26Q137.76-15.6 141.81-15.97L141.81-15.97 142.62-16.04ZM151.75-9.81L151.75-10.55 151.77-11.33Q151.77-12.55 151.58-13.67L151.58-13.67Q151.04-13.38 150.02-13.01 148.99-12.65 148.38-12.39 147.77-12.13 147.27-11.49 146.77-10.84 146.77-9.72 146.77-8.59 147.49-7.67 148.21-6.74 149.06-6.74L149.06-6.74Q150.9-6.74 151.68-8.06L151.68-8.06 151.73-8.3 151.75-9.81ZM169.99 0.02L169.94-38.33 176.14-38.35Q178.97-38.35 184.93-38.31L184.93-38.31 184.93 0.02 169.99 0.02Z" opacity="1" transform="matrix(1,0,0,1,0,0)" fill="#3949fd" class="wordmark-text-0" data-fill-palette-color="primary" id="text-0"></path></svg></g></svg></g><g transform="matrix(1,0,0,1,57.35040000000001,107.43164369304498)"><svg viewBox="0 0 280.81919999999997 22.94952094669768" height="22.94952094669768" width="280.81919999999997"><g transform="matrix(1,0,0,1,0,0)"><svg width="280.81919999999997" viewBox="2 -39.65 494.29 40.4" height="22.94952094669768" data-palette-color="#0718c4"><path d="M29.05-34.55L31.25 0 25.2 0 24.6-14.6Q24.3-22.6 24.3-26L24.3-26 24.35-28.6 19.6-3.8 13.6-3.8 8.65-28.65Q8.7-27.15 8.7-24.05L8.7-24.05Q8.7-18.8 8.5-14.4L8.5-14.4 7.95 0 2 0 4.2-34.55 12.2-34.55 16.7-10.2 20.9-34.55 29.05-34.55ZM52.95-6.4Q52.95-5.1 53.3-4.48 53.65-3.85 54.45-3.45L54.45-3.45 53.2 0.65Q51.15 0.4 49.92-0.45 48.7-1.3 48.1-3.05L48.1-3.05Q45.8 0.75 41.65 0.75L41.65 0.75Q38.35 0.75 36.4-1.48 34.45-3.7 34.45-7.4L34.45-7.4Q34.45-11.7 37.12-13.95 39.8-16.2 44.9-16.2L44.9-16.2 46.95-16.2 46.95-18.05Q46.95-20.55 46.07-21.58 45.2-22.6 43.25-22.6L43.25-22.6Q40.9-22.6 37.4-21.3L37.4-21.3 36-25.3Q38-26.2 40.15-26.68 42.3-27.15 44.25-27.15L44.25-27.15Q52.95-27.15 52.95-18.35L52.95-18.35 52.95-6.4ZM43.3-3.7Q45.7-3.7 46.95-7L46.95-7 46.95-12.55 45.5-12.55Q42.95-12.55 41.77-11.4 40.6-10.25 40.6-7.85L40.6-7.85Q40.6-5.8 41.3-4.75 42-3.7 43.3-3.7L43.3-3.7ZM68.25-27.15Q70.4-27.15 72.15-26.43 73.9-25.7 75.5-24.15L75.5-24.15 72.85-20.65Q71.75-21.55 70.77-21.98 69.8-22.4 68.65-22.4L68.65-22.4Q66.4-22.4 65.25-20.28 64.1-18.15 64.1-13.1L64.1-13.1Q64.1-8.2 65.27-6.2 66.45-4.2 68.65-4.2L68.65-4.2Q69.75-4.2 70.65-4.6 71.55-5 72.75-5.85L72.75-5.85 75.5-2.3Q72.3 0.75 68.35 0.75L68.35 0.75Q63.25 0.75 60.42-2.73 57.6-6.2 57.6-13L57.6-13Q57.6-17.4 58.9-20.6 60.2-23.8 62.62-25.48 65.05-27.15 68.25-27.15L68.25-27.15ZM90.19-27.1Q91.34-27.1 92.24-26.75L92.24-26.75 91.24-20.85Q90.24-21.1 89.39-21.1L89.39-21.1Q87.49-21.1 86.39-19.45 85.29-17.8 84.69-14.55L84.69-14.55 84.69 0 78.54 0 78.54-26.45 83.89-26.45 84.34-21.85Q86.19-27.1 90.19-27.1L90.19-27.1ZM104.49-27.15Q109.49-27.15 112.27-23.65 115.04-20.15 115.04-13.25L115.04-13.25Q115.04-6.65 112.24-2.95 109.44 0.75 104.49 0.75L104.49 0.75Q99.54 0.75 96.74-2.88 93.94-6.5 93.94-13.25L93.94-13.25Q93.94-19.95 96.74-23.55 99.54-27.15 104.49-27.15L104.49-27.15ZM104.49-22.5Q102.34-22.5 101.34-20.38 100.34-18.25 100.34-13.25L100.34-13.25Q100.34-8.2 101.34-6.08 102.34-3.95 104.49-3.95L104.49-3.95Q106.64-3.95 107.64-6.08 108.64-8.2 108.64-13.25L108.64-13.25Q108.64-18.3 107.64-20.4 106.64-22.5 104.49-22.5L104.49-22.5ZM131.94-27.15Q134.79-27.15 136.44-25.1 138.09-23.05 138.09-19.6L138.09-19.6 138.09 0 131.94 0 131.94-18.9Q131.94-20.8 131.41-21.63 130.89-22.45 129.89-22.45L129.89-22.45Q127.79-22.45 125.74-18.5L125.74-18.5 125.74 0 119.59 0 119.59-26.45 124.94-26.45 125.39-23Q126.74-25.1 128.26-26.13 129.79-27.15 131.94-27.15L131.94-27.15ZM161.79-26.45L161.79 0 156.44 0 156.14-3.35Q154.89-1.3 153.34-0.28 151.79 0.75 149.74 0.75L149.74 0.75Q146.84 0.75 145.16-1.3 143.49-3.35 143.49-6.65L143.49-6.65 143.49-26.45 149.64-26.45 149.64-7Q149.64-3.9 151.74-3.9L151.74-3.9Q152.94-3.9 153.89-4.83 154.84-5.75 155.64-7.45L155.64-7.45 155.64-26.45 161.79-26.45ZM178.63-5L180.78-1.2Q178.33 0.75 175.03 0.75L175.03 0.75Q171.58 0.75 169.78-1.23 167.98-3.2 167.98-6.6L167.98-6.6 167.98-22 164.88-22 164.88-26.45 167.98-26.45 167.98-32.3 174.13-33.05 174.13-26.45 179.13-26.45 178.53-22 174.13-22 174.13-6.6Q174.13-4.2 176.18-4.2L176.18-4.2Q176.83-4.2 177.33-4.38 177.83-4.55 178.63-5L178.63-5ZM194.98-27.1Q196.13-27.1 197.03-26.75L197.03-26.75 196.03-20.85Q195.03-21.1 194.18-21.1L194.18-21.1Q192.28-21.1 191.18-19.45 190.08-17.8 189.48-14.55L189.48-14.55 189.48 0 183.33 0 183.33-26.45 188.68-26.45 189.13-21.85Q190.98-27.1 194.98-27.1L194.98-27.1ZM199.88-26.45L206.03-26.45 206.03 0 199.88 0 199.88-26.45ZM202.93-39.65Q204.58-39.65 205.6-38.6 206.63-37.55 206.63-35.9L206.63-35.9Q206.63-34.3 205.6-33.25 204.58-32.2 202.93-32.2L202.93-32.2Q201.28-32.2 200.25-33.25 199.23-34.3 199.23-35.9L199.23-35.9Q199.23-37.55 200.25-38.6 201.28-39.65 202.93-39.65L202.93-39.65ZM230.58-13.85Q230.58-13.4 230.43-11.3L230.43-11.3 216.78-11.3Q216.98-7.2 218.2-5.58 219.43-3.95 221.68-3.95L221.68-3.95Q223.23-3.95 224.48-4.48 225.73-5 227.18-6.15L227.18-6.15 229.73-2.65Q226.23 0.75 221.33 0.75L221.33 0.75Q216.13 0.75 213.35-2.85 210.58-6.45 210.58-13L210.58-13Q210.58-19.55 213.23-23.35 215.88-27.15 220.73-27.15L220.73-27.15Q225.38-27.15 227.98-23.78 230.58-20.4 230.58-13.85L230.58-13.85ZM224.58-15.3L224.58-15.65Q224.58-19.4 223.68-21.13 222.78-22.85 220.78-22.85L220.78-22.85Q218.93-22.85 217.95-21.18 216.98-19.5 216.78-15.3L216.78-15.3 224.58-15.3ZM247.22-27.15Q250.07-27.15 251.72-25.1 253.37-23.05 253.37-19.6L253.37-19.6 253.37 0 247.22 0 247.22-18.9Q247.22-20.8 246.7-21.63 246.17-22.45 245.17-22.45L245.17-22.45Q243.07-22.45 241.02-18.5L241.02-18.5 241.02 0 234.87 0 234.87-26.45 240.22-26.45 240.67-23Q242.02-25.1 243.55-26.13 245.07-27.15 247.22-27.15L247.22-27.15ZM270.07-5L272.22-1.2Q269.77 0.75 266.47 0.75L266.47 0.75Q263.02 0.75 261.22-1.23 259.42-3.2 259.42-6.6L259.42-6.6 259.42-22 256.32-22 256.32-26.45 259.42-26.45 259.42-32.3 265.57-33.05 265.57-26.45 270.57-26.45 269.97-22 265.57-22 265.57-6.6Q265.57-4.2 267.62-4.2L267.62-4.2Q268.27-4.2 268.77-4.38 269.27-4.55 270.07-5L270.07-5ZM282.12-27.15Q286.82-27.15 290.07-24.05L290.07-24.05 287.72-20.7Q286.32-21.7 285.07-22.2 283.82-22.7 282.52-22.7L282.52-22.7Q281.07-22.7 280.24-21.93 279.42-21.15 279.42-19.8L279.42-19.8Q279.42-18.45 280.34-17.63 281.27-16.8 284.07-15.7L284.07-15.7Q287.52-14.35 289.17-12.5 290.82-10.65 290.82-7.55L290.82-7.55Q290.82-3.7 288.12-1.48 285.42 0.75 281.27 0.75L281.27 0.75Q278.57 0.75 276.29-0.23 274.02-1.2 272.32-2.95L272.32-2.95 275.32-6.25Q278.12-3.8 281.02-3.8L281.02-3.8Q282.67-3.8 283.62-4.67 284.57-5.55 284.57-7.1L284.57-7.1Q284.57-8.25 284.17-8.97 283.77-9.7 282.77-10.33 281.77-10.95 279.77-11.7L279.77-11.7Q276.32-13.05 274.84-14.85 273.37-16.65 273.37-19.45L273.37-19.45Q273.37-22.8 275.74-24.98 278.12-27.15 282.12-27.15L282.12-27.15ZM316.16-35.25Q318.81-35.25 320.84-34.38 322.86-33.5 324.76-31.7L324.76-31.7 321.71-28.05Q320.41-29.25 319.19-29.83 317.96-30.4 316.51-30.4L316.51-30.4Q313.51-30.4 311.81-27.4 310.11-24.4 310.11-17.35L310.11-17.35Q310.11-10.4 311.81-7.38 313.51-4.35 316.61-4.35L316.61-4.35Q318.16-4.35 319.31-4.98 320.46-5.6 322.01-6.9L322.01-6.9 325.06-3.4Q323.46-1.6 321.21-0.43 318.96 0.75 316.16 0.75L316.16 0.75Q310.31 0.75 306.86-3.8 303.41-8.35 303.41-17.35L303.41-17.35Q303.41-23.3 305.06-27.3 306.71-31.3 309.59-33.27 312.46-35.25 316.16-35.25L316.16-35.25ZM345.21-6.4Q345.21-5.1 345.56-4.48 345.91-3.85 346.71-3.45L346.71-3.45 345.46 0.65Q343.41 0.4 342.19-0.45 340.96-1.3 340.36-3.05L340.36-3.05Q338.06 0.75 333.91 0.75L333.91 0.75Q330.61 0.75 328.66-1.48 326.71-3.7 326.71-7.4L326.71-7.4Q326.71-11.7 329.39-13.95 332.06-16.2 337.16-16.2L337.16-16.2 339.21-16.2 339.21-18.05Q339.21-20.55 338.34-21.58 337.46-22.6 335.51-22.6L335.51-22.6Q333.16-22.6 329.66-21.3L329.66-21.3 328.26-25.3Q330.26-26.2 332.41-26.68 334.56-27.15 336.51-27.15L336.51-27.15Q345.21-27.15 345.21-18.35L345.21-18.35 345.21-6.4ZM335.56-3.7Q337.96-3.7 339.21-7L339.21-7 339.21-12.55 337.76-12.55Q335.21-12.55 334.04-11.4 332.86-10.25 332.86-7.85L332.86-7.85Q332.86-5.8 333.56-4.75 334.26-3.7 335.56-3.7L335.56-3.7ZM356.61 0.75Q353.91 0.75 352.33-0.93 350.76-2.6 350.76-5.4L350.76-5.4 350.76-37.05 356.91-37.7 356.91-5.65Q356.91-5 357.21-4.6 357.51-4.2 358.11-4.2L358.11-4.2Q358.46-4.2 358.78-4.3 359.11-4.4 359.21-4.4L359.21-4.4 360.41-0.2Q358.71 0.75 356.61 0.75L356.61 0.75ZM372.96-27.15Q375.11-27.15 376.86-26.43 378.61-25.7 380.21-24.15L380.21-24.15 377.56-20.65Q376.46-21.55 375.48-21.98 374.51-22.4 373.36-22.4L373.36-22.4Q371.11-22.4 369.96-20.28 368.81-18.15 368.81-13.1L368.81-13.1Q368.81-8.2 369.98-6.2 371.16-4.2 373.36-4.2L373.36-4.2Q374.46-4.2 375.36-4.6 376.26-5 377.46-5.85L377.46-5.85 380.21-2.3Q377.01 0.75 373.06 0.75L373.06 0.75Q367.96 0.75 365.13-2.73 362.31-6.2 362.31-13L362.31-13Q362.31-17.4 363.61-20.6 364.91-23.8 367.33-25.48 369.76-27.15 372.96-27.15L372.96-27.15ZM401.4-26.45L401.4 0 396.05 0 395.75-3.35Q394.5-1.3 392.95-0.28 391.4 0.75 389.35 0.75L389.35 0.75Q386.45 0.75 384.78-1.3 383.1-3.35 383.1-6.65L383.1-6.65 383.1-26.45 389.25-26.45 389.25-7Q389.25-3.9 391.35-3.9L391.35-3.9Q392.55-3.9 393.5-4.83 394.45-5.75 395.25-7.45L395.25-7.45 395.25-26.45 401.4-26.45ZM412.7 0.75Q410 0.75 408.43-0.93 406.85-2.6 406.85-5.4L406.85-5.4 406.85-37.05 413-37.7 413-5.65Q413-5 413.3-4.6 413.6-4.2 414.2-4.2L414.2-4.2Q414.55-4.2 414.88-4.3 415.2-4.4 415.3-4.4L415.3-4.4 416.5-0.2Q414.8 0.75 412.7 0.75L412.7 0.75ZM436.45-6.4Q436.45-5.1 436.8-4.48 437.15-3.85 437.95-3.45L437.95-3.45 436.7 0.65Q434.65 0.4 433.42-0.45 432.2-1.3 431.6-3.05L431.6-3.05Q429.3 0.75 425.15 0.75L425.15 0.75Q421.85 0.75 419.9-1.48 417.95-3.7 417.95-7.4L417.95-7.4Q417.95-11.7 420.62-13.95 423.3-16.2 428.4-16.2L428.4-16.2 430.45-16.2 430.45-18.05Q430.45-20.55 429.57-21.58 428.7-22.6 426.75-22.6L426.75-22.6Q424.4-22.6 420.9-21.3L420.9-21.3 419.5-25.3Q421.5-26.2 423.65-26.68 425.8-27.15 427.75-27.15L427.75-27.15Q436.45-27.15 436.45-18.35L436.45-18.35 436.45-6.4ZM426.8-3.7Q429.2-3.7 430.45-7L430.45-7 430.45-12.55 429-12.55Q426.45-12.55 425.27-11.4 424.1-10.25 424.1-7.85L424.1-7.85Q424.1-5.8 424.8-4.75 425.5-3.7 426.8-3.7L426.8-3.7ZM453.4-5L455.55-1.2Q453.1 0.75 449.8 0.75L449.8 0.75Q446.35 0.75 444.55-1.23 442.75-3.2 442.75-6.6L442.75-6.6 442.75-22 439.65-22 439.65-26.45 442.75-26.45 442.75-32.3 448.9-33.05 448.9-26.45 453.9-26.45 453.3-22 448.9-22 448.9-6.6Q448.9-4.2 450.95-4.2L450.95-4.2Q451.6-4.2 452.1-4.38 452.6-4.55 453.4-5L453.4-5ZM467.49-27.15Q472.49-27.15 475.27-23.65 478.04-20.15 478.04-13.25L478.04-13.25Q478.04-6.65 475.24-2.95 472.44 0.75 467.49 0.75L467.49 0.75Q462.54 0.75 459.74-2.88 456.94-6.5 456.94-13.25L456.94-13.25Q456.94-19.95 459.74-23.55 462.54-27.15 467.49-27.15L467.49-27.15ZM467.49-22.5Q465.34-22.5 464.34-20.38 463.34-18.25 463.34-13.25L463.34-13.25Q463.34-8.2 464.34-6.08 465.34-3.95 467.49-3.95L467.49-3.95Q469.64-3.95 470.64-6.08 471.64-8.2 471.64-13.25L471.64-13.25Q471.64-18.3 470.64-20.4 469.64-22.5 467.49-22.5L467.49-22.5ZM494.24-27.1Q495.39-27.1 496.29-26.75L496.29-26.75 495.29-20.85Q494.29-21.1 493.44-21.1L493.44-21.1Q491.54-21.1 490.44-19.45 489.34-17.8 488.74-14.55L488.74-14.55 488.74 0 482.59 0 482.59-26.45 487.94-26.45 488.39-21.85Q490.24-27.1 494.24-27.1L494.24-27.1Z" opacity="1" transform="matrix(1,0,0,1,0,0)" fill="#0718c4" class="slogan-text-1" data-fill-palette-color="secondary" id="text-1"></path></svg></g></svg></g></svg></g></svg></g></svg></g><defs></defs></svg><rect width="395.52" height="130.38116463974268" fill="none" stroke="none" visibility="hidden"></rect></g></svg></g></svg>